<?xml version="1.0" encoding="utf-8"?>
<svg xmlns="http://www.w3.org/2000/svg"
	 xmlns:xlink="http://www.w3.org/1999/xlink"
	width="30px" height="16px" viewBox="0 0 30 16">
<path fillRule="evenodd" d="M 12.97 6.05C 12.97 6.05 26.48 6.05 26.48 6.05 26.48 6.05 24.19 8.33 24.19 8.33 23.8 8.71 23.8 9.35 24.19 9.74 24.39 9.93 24.64 10.03 24.9 10.03 25.16 10.03 25.4 9.93 25.6 9.74 25.6 9.74 29.58 5.76 29.58 5.76 29.97 5.37 29.97 4.73 29.58 4.35 29.58 4.35 25.6 0.37 25.6 0.37 25.22-0.02 24.58-0.02 24.19 0.37 23.8 0.76 23.8 1.39 24.19 1.78 24.19 1.78 26.48 4.06 26.48 4.06 26.48 4.06 12.97 4.06 12.97 4.06 12.43 4.06 11.98 4.51 11.98 5.05 11.98 5.6 12.43 6.05 12.97 6.05ZM 4.32 15.7C 4.52 15.89 4.76 15.99 5.02 15.99 5.28 15.99 5.53 15.89 5.73 15.7 6.12 15.32 6.12 14.68 5.73 14.29 5.73 14.29 3.44 12.01 3.44 12.01 3.44 12.01 16.95 12.01 16.95 12.01 17.49 12.01 17.94 11.57 17.94 11.02 17.94 10.47 17.49 10.03 16.95 10.03 16.95 10.03 3.44 10.03 3.44 10.03 3.44 10.03 5.73 7.75 5.73 7.75 6.12 7.36 6.12 6.72 5.73 6.34 5.34 5.95 4.7 5.95 4.32 6.34 4.32 6.34 0.34 10.31 0.34 10.31-0.05 10.7-0.05 11.34 0.34 11.73 0.34 11.73 4.32 15.7 4.32 15.7Z" fill="rgb(255,255,255)"/></svg>