<?xml version="1.0" encoding="utf-8"?>
<svg xmlns="http://www.w3.org/2000/svg"
	xmlns:xlink="http://www.w3.org/1999/xlink"
	width="18px" height="18px" viewBox="0 0 18 18">
<path fillRule="evenodd" d="M 11.08 13.89C 7.25 13.88 4.15 10.76 4.16 6.91 4.18 3.08 7.29-0.02 11.11 0 14.93 0.02 18.02 3.14 18 6.98 17.98 10.8 14.89 13.89 11.08 13.89ZM 11.08 1.97C 8.37 1.98 6.18 4.19 6.19 6.91 6.19 6.91 6.19 6.91 6.19 6.91 6.21 9.62 8.41 11.81 11.11 11.79 13.81 11.77 15.99 9.56 15.97 6.85 15.95 4.15 13.77 1.97 11.08 1.97ZM 5.81 13.63C 5.81 13.63 1.43 18 1.43 18 1.43 18-0 16.56-0 16.56-0 16.56 4.38 12.19 4.38 12.19 4.38 12.19 5.81 13.63 5.81 13.63Z" fill="rgb(255,255,255)"/></svg>