<?xml version="1.0" encoding="utf-8"?>
<svg xmlns="http://www.w3.org/2000/svg"
	xmlns:xlink="http://www.w3.org/1999/xlink"
	width="26px" height="26px" viewBox="0 0 26 26">
<path fillRule="evenodd" d="M 7 6C 7 6 7 6 7 6 6.45 6 6 5.55 6 5 6 5 6 1 6 1 6 0.45 6.45-0 7-0 7-0 7-0 7-0 7.55-0 8 0.45 8 1 8 1 8 5 8 5 8 5.55 7.55 6 7 6ZM 20 5C 20 5 20 1 20 1 20 0.45 19.55-0 19-0 19-0 19-0 19-0 18.45-0 18 0.45 18 1 18 1 18 5 18 5 18 5.55 18.45 6 19 6 19 6 19 6 19 6 19.55 6 20 5.55 20 5ZM 26 5.08C 26 5.08 26 22.92 26 22.92 26 24.62 24.62 26 22.92 26 22.92 26 3.08 26 3.08 26 1.38 26-0 24.62-0 22.92-0 22.92-0 5.08-0 5.08-0 3.38 1.38 2 3.08 2 3.08 2 4 2 4 2 4 2 4 5 4 5 4 6.66 5.34 8 7 8 8.66 8 10 6.66 10 5 10 5 10 2 10 2 10 2 16 2 16 2 16 2 16 5 16 5 16 6.66 17.34 8 19 8 20.66 8 22 6.66 22 5 22 5 22 2 22 2 22 2 22.92 2 22.92 2 24.62 2 26 3.38 26 5.08ZM 24 10C 24 10 2 10 2 10 2 10 2 22 2 22 2 22 24 22 24 22 24 22 24 10 24 10ZM 6 12C 6 12 4 12 4 12 4 12 4 14 4 14 4 14 6 14 6 14 6 14 6 12 6 12ZM 6 16C 6 16 4 16 4 16 4 16 4 18 4 18 4 18 6 18 6 18 6 18 6 16 6 16ZM 10 12C 10 12 8 12 8 12 8 12 8 14 8 14 8 14 10 14 10 14 10 14 10 12 10 12ZM 10 16C 10 16 8 16 8 16 8 16 8 18 8 18 8 18 10 18 10 18 10 18 10 16 10 16ZM 14 12C 14 12 12 12 12 12 12 12 12 14 12 14 12 14 14 14 14 14 14 14 14 12 14 12ZM 14 16C 14 16 12 16 12 16 12 16 12 18 12 18 12 18 14 18 14 18 14 18 14 16 14 16ZM 18 12C 18 12 16 12 16 12 16 12 16 14 16 14 16 14 18 14 18 14 18 14 18 12 18 12ZM 22 12C 22 12 20 12 20 12 20 12 20 14 20 14 20 14 22 14 22 14 22 14 22 12 22 12ZM 18 16C 18 16 16 16 16 16 16 16 16 18 16 18 16 18 18 18 18 18 18 18 18 16 18 16Z" fill="rgb(101,101,101)"/></svg>