<?xml version="1.0" encoding="utf-8"?>
<svg xmlns="http://www.w3.org/2000/svg"
	xmlns:xlink="http://www.w3.org/1999/xlink"
	viewBox="0 0 12 15">
<path fillRule="evenodd" d="M 6.14 6.92C 7.8 6.92 9.15 5.27 9.15 3.23 9.15 1.19 7.8-0 6.14-0 4.48-0 3.13 1.19 3.13 3.23 3.13 5.27 4.48 6.92 6.14 6.92ZM 11.98 12.13C 11.69 9.46 9.22 8.5 6.22 8.5 6.2 8.5 6.17 8.5 6.14 8.5 6.11 8.5 6.08 8.5 6.05 8.5 3.06 8.5 0.59 9.46 0.3 12.13 0.29 12.2 0.29 12.79 0.28 13.11 1.89 14.34 3.85 15 6.14 15 8.4 15 10.39 14.32 12 13.11 11.99 12.79 11.99 12.2 11.98 12.13Z" fill="rgb(255,255,255)"/></svg>